<mxfile host="app.diagrams.net" modified="2024-03-24T13:47:08.287Z" agent="Mozilla/5.0 (X11; Linux x86_64; rv:124.0) Gecko/20100101 Firefox/124.0" version="24.1.0" etag="nWnW8OwfdF-rXTlspF8m" type="github">
  <diagram name="Page-1" id="doXY1v0RqCvbL5RsRjee">
    <mxGraphModel>
      <root>
        <mxCell id="0" />
        <mxCell id="1" parent="0" />
      </root>
    </mxGraphModel>
  </diagram>
</mxfile>
